{
	"asset":{
		"version":"2.0",
		"generator":"Created using the official Cinema 4D glTF Exporter 1.000x284978"
	},
	"scenes":[{
		"nodes":[0]
	}],
	"nodes":[{
		"name":"Smoke3",
		"mesh":0
	}],
	"meshes":[{
		"name":"Smoke3",
		"primitives":[{
			"attributes":{
				"POSITION":1,
				"NORMAL":2,
				"TEXCOORD_0":3
			},
			"indices":0,
			"material":0
		}]
	}],
	"accessors":[{
		"bufferView":0,
		"type":"SCALAR",
		"componentType":5123,
		"count":564,
		"byteOffset":0,
		"min":[0],
		"max":[97]
	},
	{
		"bufferView":1,
		"type":"VEC3",
		"componentType":5126,
		"count":98,
		"byteOffset":0,
		"min":[-40.635650634765628,
		-40.99009323120117,
		-24.660484313964845],
		"max":[40.635650634765628,
		40.99009323120117,
		24.660484313964845]
	},
	{
		"bufferView":1,
		"type":"VEC3",
		"componentType":5126,
		"count":98,
		"byteOffset":12,
		"min":[-1.0,
		-1.0,
		-0.9761250615119934],
		"max":[1.0,
		1.0,
		0.9841388463973999]
	},
	{
		"bufferView":1,
		"type":"VEC2",
		"componentType":5126,
		"count":98,
		"byteOffset":24,
		"min":[0.012209443375468254,
		0.16222608089447022],
		"max":[0.983731746673584,
		0.9823768138885498]
	}],
	"bufferViews":[{
		"buffer":0,
		"byteOffset":0,
		"byteLength":1128,
		"target":34963
	},
	{
		"buffer":0,
		"byteOffset":1128,
		"byteLength":3136,
		"target":34962,
		"byteStride":32
	}],
	"buffers":[{
		"uri":"data:application/octet-stream;base64,",
		"byteLength":4264
	}],
	"materials":[{
		"pbrMetallicRoughness":{
			"baseColorFactor":[1.0,
			1.0,
			1.0,
			1.0],
			"metallicFactor":1.0,
			"roughnessFactor":1.0
		},
		"emissiveFactor":[1.0,
		1.0,
		1.0],
		"alphaMode":"BLEND",
		"doubleSided":true,
		"name":"Rocket - Smoke"
	}]
}