{
	"asset":{
		"version":"2.0",
		"generator":"Created using the official Cinema 4D glTF Exporter 1.000x284978"
	},
	"scenes":[{
		"nodes":[0]
	}],
	"nodes":[{
		"name":"Smoke4",
		"mesh":0
	}],
	"meshes":[{
		"name":"Smoke4",
		"primitives":[{
			"attributes":{
				"POSITION":1,
				"NORMAL":2,
				"TEXCOORD_0":3
			},
			"indices":0,
			"material":0
		}]
	}],
	"accessors":[{
		"bufferView":0,
		"type":"SCALAR",
		"componentType":5123,
		"count":678,
		"byteOffset":0,
		"min":[0],
		"max":[115]
	},
	{
		"bufferView":1,
		"type":"VEC3",
		"componentType":5126,
		"count":116,
		"byteOffset":0,
		"min":[-40.46589279174805,
		-29.2333984375,
		-27.1983642578125],
		"max":[40.46589279174805,
		29.2333984375,
		27.1983642578125]
	},
	{
		"bufferView":1,
		"type":"VEC3",
		"componentType":5126,
		"count":116,
		"byteOffset":12,
		"min":[-0.9294524788856506,
		-0.9990872740745544,
		-0.9995862245559692],
		"max":[0.9671050906181336,
		0.9735855460166931,
		0.9989818334579468]
	},
	{
		"bufferView":1,
		"type":"VEC2",
		"componentType":5126,
		"count":116,
		"byteOffset":24,
		"min":[0.011649959720671177,
		0.05164850503206253],
		"max":[0.9853479862213135,
		0.9215489625930786]
	}],
	"bufferViews":[{
		"buffer":0,
		"byteOffset":0,
		"byteLength":1356,
		"target":34963
	},
	{
		"buffer":0,
		"byteOffset":1356,
		"byteLength":3712,
		"target":34962,
		"byteStride":32
	}],
	"buffers":[{
		"uri":"data:application/octet-stream;base64,",
		"byteLength":5068
	}],
	"materials":[{
		"pbrMetallicRoughness":{
			"baseColorFactor":[1.0,
			1.0,
			1.0,
			1.0],
			"metallicFactor":1.0,
			"roughnessFactor":1.0
		},
		"emissiveFactor":[1.0,
		1.0,
		1.0],
		"alphaMode":"BLEND",
		"doubleSided":true,
		"name":"Rocket - Smoke"
	}]
}