{
	"asset":{
		"version":"2.0",
		"generator":"Created using the official Cinema 4D glTF Exporter 1.000x284978"
	},
	"scenes":[{
		"nodes":[0]
	}],
	"nodes":[{
		"name":"Smoke5",
		"mesh":0
	}],
	"meshes":[{
		"name":"Smoke5",
		"primitives":[{
			"attributes":{
				"POSITION":1,
				"NORMAL":2,
				"TEXCOORD_0":3
			},
			"indices":0,
			"material":0
		}]
	}],
	"accessors":[{
		"bufferView":0,
		"type":"SCALAR",
		"componentType":5123,
		"count":306,
		"byteOffset":0,
		"min":[0],
		"max":[57]
	},
	{
		"bufferView":1,
		"type":"VEC3",
		"componentType":5126,
		"count":58,
		"byteOffset":0,
		"min":[-26.939973831176759,
		-37.9337272644043,
		-24.236927032470704],
		"max":[26.939973831176759,
		37.9337272644043,
		24.236927032470704]
	},
	{
		"bufferView":1,
		"type":"VEC3",
		"componentType":5126,
		"count":58,
		"byteOffset":12,
		"min":[-0.945092499256134,
		-0.9304059147834778,
		-0.946972131729126],
		"max":[0.9612593054771423,
		0.9425297975540161,
		0.9970780611038208]
	},
	{
		"bufferView":1,
		"type":"VEC2",
		"componentType":5126,
		"count":58,
		"byteOffset":24,
		"min":[0.0057641793973743919,
		0.1176971048116684],
		"max":[0.9642285704612732,
		0.9718009233474731]
	}],
	"bufferViews":[{
		"buffer":0,
		"byteOffset":0,
		"byteLength":612,
		"target":34963
	},
	{
		"buffer":0,
		"byteOffset":612,
		"byteLength":1856,
		"target":34962,
		"byteStride":32
	}],
	"buffers":[{
		"uri":"data:application/octet-stream;base64,",
		"byteLength":2468
	}],
	"materials":[{
		"pbrMetallicRoughness":{
			"baseColorFactor":[1.0,
			1.0,
			1.0,
			1.0],
			"metallicFactor":1.0,
			"roughnessFactor":1.0
		},
		"emissiveFactor":[1.0,
		1.0,
		1.0],
		"alphaMode":"BLEND",
		"doubleSided":true,
		"name":"Rocket - Smoke"
	}]
}