{
	"asset":{
		"version":"2.0",
		"generator":"Created using the official Cinema 4D glTF Exporter 1.000x284978"
	},
	"scenes":[{
		"nodes":[0]
	}],
	"nodes":[{
		"name":"Smoke2",
		"mesh":0
	}],
	"meshes":[{
		"name":"Smoke2",
		"primitives":[{
			"attributes":{
				"POSITION":1,
				"NORMAL":2,
				"TEXCOORD_0":3
			},
			"indices":0,
			"material":0
		}]
	}],
	"accessors":[{
		"bufferView":0,
		"type":"SCALAR",
		"componentType":5123,
		"count":804,
		"byteOffset":0,
		"min":[0],
		"max":[135]
	},
	{
		"bufferView":1,
		"type":"VEC3",
		"componentType":5126,
		"count":136,
		"byteOffset":0,
		"min":[-39.62885284423828,
		-31.320478439331056,
		-31.1983642578125],
		"max":[39.62885284423828,
		31.320478439331056,
		31.1983642578125]
	},
	{
		"bufferView":1,
		"type":"VEC3",
		"componentType":5126,
		"count":136,
		"byteOffset":12,
		"min":[-1.0,
		-0.9995723962783814,
		-1.0],
		"max":[0.9855529069900513,
		0.9997274279594421,
		1.0]
	},
	{
		"bufferView":1,
		"type":"VEC2",
		"componentType":5126,
		"count":136,
		"byteOffset":24,
		"min":[0.006545722484588623,
		0.054787538945674899],
		"max":[0.9721016883850098,
		0.913360595703125]
	}],
	"bufferViews":[{
		"buffer":0,
		"byteOffset":0,
		"byteLength":1608,
		"target":34963
	},
	{
		"buffer":0,
		"byteOffset":1608,
		"byteLength":4352,
		"target":34962,
		"byteStride":32
	}],
	"buffers":[{
		"uri":"data:application/octet-stream;base64,",
		"byteLength":5960
	}],
	"materials":[{
		"pbrMetallicRoughness":{
			"baseColorFactor":[1.0,
			1.0,
			1.0,
			1.0],
			"metallicFactor":1.0,
			"roughnessFactor":1.0
		},
		"emissiveFactor":[1.0,
		1.0,
		1.0],
		"alphaMode":"BLEND",
		"doubleSided":true,
		"name":"Rocket - Smoke"
	}]
}